<svg xmlns="http://www.w3.org/2000/svg" width="1220" height="1160" viewBox="0 0 1220 1160"><rect width="1220" height="1160" fill="#07131d"/><g font-family="sans-serif"><text x="24" y="38" font-size="24" fill="#edfcfc">UNHARNESS / ENTITY AWAKENING V2</text><text x="24" y="70" font-size="16" fill="#b4d2d4">12 FRAMES · 4 COLUMNS × 3 ROWS · SAME HEAD SIZE / ONE COMMON SCALE</text><g transform="translate(20 110)"><rect width="275" height="310" rx="12" fill="#142b38" stroke="#4a7080"/><text x="16" y="27" fill="#dff6f5" font-size="15">00 / NORMAL</text><line x1="138" y1="53" x2="138" y2="285" stroke="#527081" stroke-dasharray="4 6"/><circle cx="138" cy="114.5" r="16" fill="none" stroke="#9edbd6" stroke-width="2"/><rect x="112" y="135.5" width="52" height="98" rx="22" fill="none" stroke="#9edbd6" stroke-width="2"/><circle cx="138" cy="166" r="3" fill="#f1be72"/></g><g transform="translate(315 110)"><rect width="275" height="310" rx="12" fill="#142b38" stroke="#4a7080"/><text x="16" y="27" fill="#dff6f5" font-size="15">01 / UNSEAL</text><line x1="138" y1="53" x2="138" y2="285" stroke="#527081" stroke-dasharray="4 6"/><circle cx="138" cy="114.5" r="16" fill="none" stroke="#9edbd6" stroke-width="2"/><rect x="112" y="135.5" width="52" height="98" rx="22" fill="none" stroke="#9edbd6" stroke-width="2"/><circle cx="138" cy="166" r="3" fill="#f1be72"/></g><g transform="translate(610 110)"><rect width="275" height="310" rx="12" fill="#142b38" stroke="#4a7080"/><text x="16" y="27" fill="#dff6f5" font-size="15">02 / UNFOLD 1</text><line x1="138" y1="53" x2="138" y2="285" stroke="#527081" stroke-dasharray="4 6"/><circle cx="138" cy="108.5" r="16" fill="none" stroke="#9edbd6" stroke-width="2"/><rect x="112" y="129.5" width="52" height="110" rx="22" fill="none" stroke="#9edbd6" stroke-width="2"/><circle cx="138" cy="166" r="3" fill="#f1be72"/></g><g transform="translate(905 110)"><rect width="275" height="310" rx="12" fill="#142b38" stroke="#4a7080"/><text x="16" y="27" fill="#dff6f5" font-size="15">03 / UNFOLD 2</text><line x1="138" y1="53" x2="138" y2="285" stroke="#527081" stroke-dasharray="4 6"/><circle cx="138" cy="102.5" r="16" fill="none" stroke="#9edbd6" stroke-width="2"/><rect x="112" y="123.5" width="52" height="122" rx="22" fill="none" stroke="#9edbd6" stroke-width="2"/><circle cx="138" cy="166" r="3" fill="#f1be72"/></g><g transform="translate(20 440)"><rect width="275" height="310" rx="12" fill="#142b38" stroke="#4a7080"/><text x="16" y="27" fill="#dff6f5" font-size="15">04 / UNFOLD 3</text><line x1="138" y1="53" x2="138" y2="285" stroke="#527081" stroke-dasharray="4 6"/><circle cx="138" cy="96.5" r="16" fill="none" stroke="#9edbd6" stroke-width="2"/><rect x="112" y="117.5" width="52" height="134" rx="22" fill="none" stroke="#9edbd6" stroke-width="2"/><circle cx="138" cy="166" r="3" fill="#f1be72"/></g><g transform="translate(315 440)"><rect width="275" height="310" rx="12" fill="#142b38" stroke="#4a7080"/><text x="16" y="27" fill="#dff6f5" font-size="15">05 / UNFOLD 4</text><line x1="138" y1="53" x2="138" y2="285" stroke="#527081" stroke-dasharray="4 6"/><circle cx="138" cy="90.5" r="16" fill="none" stroke="#9edbd6" stroke-width="2"/><rect x="112" y="111.5" width="52" height="146" rx="22" fill="none" stroke="#9edbd6" stroke-width="2"/><circle cx="138" cy="166" r="3" fill="#f1be72"/></g><g transform="translate(610 440)"><rect width="275" height="310" rx="12" fill="#142b38" stroke="#4a7080"/><text x="16" y="27" fill="#dff6f5" font-size="15">06 / UNFOLD 5</text><line x1="138" y1="53" x2="138" y2="285" stroke="#527081" stroke-dasharray="4 6"/><circle cx="138" cy="84.5" r="16" fill="none" stroke="#9edbd6" stroke-width="2"/><rect x="112" y="105.5" width="52" height="158" rx="22" fill="none" stroke="#9edbd6" stroke-width="2"/><circle cx="138" cy="166" r="3" fill="#f1be72"/></g><g transform="translate(905 440)"><rect width="275" height="310" rx="12" fill="#142b38" stroke="#4a7080"/><text x="16" y="27" fill="#dff6f5" font-size="15">07 / UNFOLD 6</text><line x1="138" y1="53" x2="138" y2="285" stroke="#527081" stroke-dasharray="4 6"/><circle cx="138" cy="78.5" r="16" fill="none" stroke="#9edbd6" stroke-width="2"/><rect x="112" y="99.5" width="52" height="170" rx="22" fill="none" stroke="#9edbd6" stroke-width="2"/><circle cx="138" cy="166" r="3" fill="#f1be72"/></g><g transform="translate(20 770)"><rect width="275" height="310" rx="12" fill="#142b38" stroke="#4a7080"/><text x="16" y="27" fill="#dff6f5" font-size="15">08 / UNFOLD 7</text><line x1="138" y1="53" x2="138" y2="285" stroke="#527081" stroke-dasharray="4 6"/><circle cx="138" cy="72.5" r="16" fill="none" stroke="#9edbd6" stroke-width="2"/><rect x="112" y="93.5" width="52" height="182" rx="22" fill="none" stroke="#9edbd6" stroke-width="2"/><circle cx="138" cy="166" r="3" fill="#f1be72"/></g><g transform="translate(315 770)"><rect width="275" height="310" rx="12" fill="#142b38" stroke="#4a7080"/><text x="16" y="27" fill="#dff6f5" font-size="15">09 / UNFOLD 8</text><line x1="138" y1="53" x2="138" y2="285" stroke="#527081" stroke-dasharray="4 6"/><circle cx="138" cy="66.5" r="16" fill="none" stroke="#9edbd6" stroke-width="2"/><rect x="112" y="87.5" width="52" height="194" rx="22" fill="none" stroke="#9edbd6" stroke-width="2"/><circle cx="138" cy="166" r="3" fill="#f1be72"/></g><g transform="translate(610 770)"><rect width="275" height="310" rx="12" fill="#142b38" stroke="#4a7080"/><text x="16" y="27" fill="#dff6f5" font-size="15">10 / UNFOLD 9</text><line x1="138" y1="53" x2="138" y2="285" stroke="#527081" stroke-dasharray="4 6"/><circle cx="138" cy="60.5" r="16" fill="none" stroke="#9edbd6" stroke-width="2"/><rect x="112" y="81.5" width="52" height="206" rx="22" fill="none" stroke="#9edbd6" stroke-width="2"/><circle cx="138" cy="166" r="3" fill="#f1be72"/></g><g transform="translate(905 770)"><rect width="275" height="310" rx="12" fill="#142b38" stroke="#4a7080"/><text x="16" y="27" fill="#dff6f5" font-size="15">11 / TRUEFORM</text><line x1="138" y1="53" x2="138" y2="285" stroke="#527081" stroke-dasharray="4 6"/><circle cx="138" cy="54.5" r="16" fill="none" stroke="#9edbd6" stroke-width="2"/><rect x="112" y="75.5" width="52" height="218" rx="22" fill="none" stroke="#9edbd6" stroke-width="2"/><circle cx="138" cy="166" r="3" fill="#f1be72"/></g><text x="24" y="1130" font-size="16" fill="#b4d2d4">GUIDE ONLY · Output transparent PNG without grid, labels or effects · Positions are normalized by the plugin</text></g></svg>
